<?xml version="1.0" standalone="no"?>
<!DOCTYPE svg PUBLIC "-//W3C//DTD SVG 20010904//EN"
 "http://www.w3.org/TR/2001/REC-SVG-20010904/DTD/svg10.dtd">
<svg version="1.0" xmlns="http://www.w3.org/2000/svg"
 width="700.000000pt" height="700.000000pt" viewBox="0 0 700.000000 700.000000"
 preserveAspectRatio="xMidYMid meet">
<metadata>
Created by potrace 1.11, written by Peter Selinger 2001-2013
</metadata>
<g transform="translate(0.000000,700.000000) scale(0.100000,-0.100000)"
fill="#000000" stroke="none">
<path d="M3086 6033 c-1 -1 -42 -3 -93 -4 -50 -1 -117 -6 -149 -11 -33 -4 -74
-11 -93 -13 -64 -10 -192 -46 -265 -75 -148 -58 -254 -127 -362 -235 -201
-199 -303 -446 -330 -800 -10 -117 -10 -2706 0 -2805 42 -463 219 -765 561
-959 112 -64 330 -132 465 -146 30 -3 72 -8 94 -11 50 -8 1128 -8 1186 0 25 4
63 9 85 12 478 66 805 323 951 749 34 98 64 252 71 370 4 55 7 393 7 751 0
614 -1 654 -19 693 -11 25 -33 50 -54 64 l-36 22 -762 0 c-754 0 -762 0 -790
-21 -62 -46 -64 -55 -61 -421 4 -450 -26 -417 378 -420 151 -1 284 -5 295 -7
43 -11 47 -34 47 -305 0 -273 -10 -354 -51 -443 -41 -86 -103 -132 -222 -164
-54 -15 -116 -17 -409 -19 -367 -2 -453 5 -543 45 -68 30 -115 75 -147 141
-24 50 -32 79 -47 174 -5 34 -5 2578 0 2615 17 116 54 205 104 252 32 30 114
73 158 82 17 4 41 9 55 12 52 13 702 11 782 -2 142 -23 223 -76 271 -178 34
-74 48 -169 50 -361 3 -155 5 -174 24 -205 42 -67 28 -65 461 -68 383 -3 395
-2 437 18 69 33 79 70 78 299 0 170 -6 282 -18 351 -20 124 -30 167 -56 246
-125 388 -437 661 -839 738 -120 22 -136 25 -217 32 -62 6 -992 12 -997 7z"/>
</g>
</svg>
