<svg xmlns="http://www.w3.org/2000/svg" viewBox="0 0 260 260"><title>favicon</title><path d="M145.656,224.079H114.637q-23.119,0-35.7-12.29T66.354,176.382V83.618q0-23.112,12.583-35.407t35.7-12.29h31.019q22.824,0,35.407,12.436t12.583,35.261V92.4q0,6.44-6.145,6.438H162.628q-6.145,0-6.145-6.438V85.375q0-9.362-3.8-13.315T139.51,68.11H120.49q-9.073,0-13.022,3.95t-3.951,13.315v89.251q0,9.369,3.951,13.314t13.022,3.95h19.02q9.363,0,13.169-3.95t3.8-13.314V160.252q0-3.216-3.219-3.219H135.706q-6.145,0-6.145-6.145v-19.9q0-6.144,6.145-6.145h51.209q6.729,0,6.731,6.73v44.807q0,22.824-12.583,35.261T145.656,224.079Z" style="fill:#86883a"/></svg>